<mxfile host="app.diagrams.net" modified="2023-12-14T07:34:34.648Z" agent="Mozilla/5.0 (Macintosh; Intel Mac OS X 10_15_7) AppleWebKit/605.1.15 (KHTML, like Gecko) Version/16.3 Safari/605.1.15" version="22.1.8" etag="v9O0CoCYvUrNoGqzm1qT" type="github">
  <diagram name="Page-1" id="_XPjorN1N-Xs2x-qDI0w">
    <mxGraphModel>
      <root>
        <mxCell id="0" />
        <mxCell id="1" parent="0" />
      </root>
    </mxGraphModel>
  </diagram>
</mxfile>
